<svg xmlns="http://www.w3.org/2000/svg" viewBox="0 0 168 161.8"><title>资源 3</title><g id="b06a5073-f7a2-46b5-aaee-feab26f717ea" data-name="图层 2"><g id="e5e064aa-1de8-4e5f-9b92-dc160151652d" data-name="图层 1"><path d="M42.44,97.71a2,2,0,1,0,2-2.3A2.16,2.16,0,0,0,42.44,97.71Z" fill="#d4ffd4"/><path d="M80.54,3.67a1.6,1.6,0,1,0,3.17,0,1.6,1.6,0,1,0-3.17,0Z" fill="#d4ffd4"/><path d="M54.35,51.83a1.2,1.2,0,1,0,1.19-1.37A1.3,1.3,0,0,0,54.35,51.83Z" fill="#d4ffd4"/><path d="M81.33,54.13a.8.8,0,1,0,.8-.92A.87.87,0,0,0,81.33,54.13Z" fill="#d4ffd4"/><path d="M114.67,96.79a.43.43,0,0,0,.39.46.46.46,0,0,0,0-.92A.43.43,0,0,0,114.67,96.79Z" fill="#d4ffd4"/><path d="M121.81,90.37a2,2,0,1,0,2-2.3A2.16,2.16,0,0,0,121.81,90.37Z" fill="#ffbdbd"/><path d="M45.62,5.5a1.6,1.6,0,1,0,3.17,0,1.6,1.6,0,1,0-3.17,0Z" fill="#ffbdbd"/><path d="M98,50.46a1.2,1.2,0,1,0,1.19-1.38A1.29,1.29,0,0,0,98,50.46Z" fill="#ffbdbd"/><path d="M31.33,86.24a.8.8,0,1,0,.8-.92A.87.87,0,0,0,31.33,86.24Z" fill="#ffbdbd"/><path d="M32.13,42.2a.42.42,0,0,0,.39.46.43.43,0,0,0,.4-.46.44.44,0,0,0-.4-.46A.43.43,0,0,0,32.13,42.2Z" fill="#ffbdbd"/><path d="M64.67,2.29a2,2,0,1,0,4,0,2,2,0,1,0-4,0Z" fill="#bbf1ff"/><path d="M116.25,51.38a1.61,1.61,0,1,0,1.59-1.84A1.72,1.72,0,0,0,116.25,51.38Z" fill="#bbf1ff"/><path d="M79,96.33A1.2,1.2,0,1,0,80.14,95,1.3,1.3,0,0,0,79,96.33Z" fill="#bbf1ff"/><path d="M65.06,49.54a.8.8,0,1,0,.8-.92A.87.87,0,0,0,65.06,49.54Z" fill="#bbf1ff"/><path d="M109.11,6a.43.43,0,0,0,.4.46A.42.42,0,0,0,109.9,6a.43.43,0,0,0-.39-.46A.44.44,0,0,0,109.11,6Z" fill="#bbf1ff"/><path d="M25.78,5.5a2.16,2.16,0,0,0,2,2.3,2.16,2.16,0,0,0,2-2.3,2.16,2.16,0,0,0-2-2.29A2.16,2.16,0,0,0,25.78,5.5Z" fill="#fff4c5"/><path d="M32.92,51.38a1.6,1.6,0,1,0,1.59-1.84A1.72,1.72,0,0,0,32.92,51.38Z" fill="#fff4c5"/><path d="M96,2.29a1.2,1.2,0,1,0,2.38,0,1.2,1.2,0,1,0-2.38,0Z" fill="#fff4c5"/><path d="M86.09,54.13a.8.8,0,1,0,.8-.92A.87.87,0,0,0,86.09,54.13Z" fill="#fff4c5"/><path d="M87.28,98.17a.4.4,0,1,0,.4-.46A.43.43,0,0,0,87.28,98.17Z" fill="#fff4c5"/><path d="M34.51,26.89c0,8.49,6,15.39,13.31,15.39s13.31-6.9,13.31-15.39-6-15.39-13.31-15.39S34.51,18.39,34.51,26.89Z" fill="#cbecf9"/><path d="M36.57,24.5c0,7.19,5,13,11.25,13s11.25-5.82,11.25-13-5-13-11.25-13-11.25,5.82-11.25,13Z" fill="#fff"/><path d="M47.82,43.19c-7.79,0-14.11-7.3-14.11-16.3S40,10.58,47.82,10.58s14.11,7.3,14.11,16.31S55.61,43.18,47.82,43.19Zm0-30.78c-6.91,0-12.52,6.48-12.52,14.48s5.61,14.47,12.52,14.47,12.52-6.48,12.52-14.47h0c0-8-5.61-14.47-12.52-14.48Z" fill="#2fb1ea"/><path d="M37.84,26.89c0,6.37,4.47,11.54,10,11.54s10-5.17,10-11.54Z" fill="#ffc444"/><path d="M40.14,29.55c0,4.9,3.44,8.88,7.68,8.88s7.68-4,7.68-8.88Z" fill="#ffe76e"/><path d="M47.82,39.34c-6,0-10.77-5.58-10.78-12.45a.87.87,0,0,1,.8-.92h20a.87.87,0,0,1,.8.92c0,6.87-4.83,12.45-10.78,12.45ZM38.66,27.8c.44,5.85,4.89,10.18,10,9.68C53.06,37,56.59,33,57,27.8Z" fill="#2fb1ea"/><path d="M90.42,73.11c0,8.5,6,15.39,13.31,15.39s13.32-6.89,13.32-15.39-6-15.39-13.32-15.39S90.42,64.62,90.42,73.11Z" fill="#cbecf9"/><path d="M92.48,70.73c0,7.18,5,13,11.25,13S115,77.92,115,70.74h0c0-7.18-5-13-11.24-13s-11.25,5.82-11.26,13Z" fill="#fff"/><path d="M103.73,89.42c-7.79,0-14.1-7.3-14.1-16.31s6.31-16.3,14.1-16.3,14.11,7.3,14.11,16.3S111.52,89.41,103.73,89.42Zm0-30.78c-6.91,0-12.52,6.48-12.52,14.47s5.61,14.48,12.52,14.48,12.52-6.48,12.52-14.48S110.65,58.65,103.73,58.64Z" fill="#2fb1ea"/><path d="M93.75,73.11c0,6.38,4.47,11.54,10,11.54s10-5.17,10-11.54Z" fill="#ffc444"/><path d="M96.05,75.78c0,4.9,3.44,8.88,7.68,8.87s7.69-4,7.69-8.87Z" fill="#ffe76e"/><path d="M103.73,85.57C97.78,85.57,93,80,93,73.11a.86.86,0,0,1,.79-.91h20a.86.86,0,0,1,.79.91c0,6.88-4.83,12.46-10.78,12.46ZM94.57,74c.44,5.85,4.89,10.18,10,9.68,4.45-.44,8-4.53,8.37-9.68Z" fill="#2fb1ea"/><path d="M117.05,19.19V34.58c0,4.25-3,7.7-6.66,7.7H80.44c-3.67,0-6.65-3.45-6.65-7.7l-7.33-7.69,7.33-7.7c0-4.25,3-7.69,6.66-7.69h30C114.07,11.51,117.05,15,117.05,19.19Z" fill="#cbecf9"/><path d="M114.36,19.19V31.33c0,4.24-3,7.69-6.65,7.69H82.13c-3.68,0-6.66-3.45-6.66-7.69h0l-9-4.44,7.31-7.7c0-4.25,3-7.69,6.66-7.69h27.27c3.67,0,6.64,3.45,6.64,7.69Z" fill="#fff"/><path d="M110.39,43.19H80.44c-4,0-7.24-3.61-7.44-8.19l-7.07-7.44a1,1,0,0,1-.07-1.29.27.27,0,0,1,.07-.08L73,18.78c.2-4.59,3.47-8.2,7.44-8.2h30c4.11,0,7.45,3.86,7.45,8.61V34.58C117.83,39.33,114.5,43.19,110.39,43.19ZM67.64,26.89l6.67,7a1,1,0,0,1,.26.68c0,3.74,2.63,6.77,5.86,6.77h29.95c3.24,0,5.87-3,5.87-6.77V19.19c0-3.74-2.62-6.77-5.86-6.77H80.44c-3.23,0-5.85,3-5.85,6.77a1,1,0,0,1-.26.68Z" fill="#2fb1ea"/><path d="M81.1,19.19h27.3c1.33,0,2,.77,2,2.31h0c0,1.54-.66,2.31-2,2.31H81.1c-1.33,0-2-.77-2-2.31h0c0-1.54.66-2.31,2-2.31Z" fill="#90fc95"/><path d="M81.1,30h27.3c1.33,0,2,.77,2,2.31h0c0,1.54-.66,2.31-2,2.31H81.1c-1.33,0-2-.77-2-2.31h0C79.11,30.73,79.77,30,81.1,30Z" fill="#90fc95"/><path d="M34.51,65.42V80.81c0,4.25,3,7.69,6.65,7.69h30c3.68,0,6.65-3.45,6.65-7.69l7.32-7.7-7.32-7.69c0-4.25-3-7.7-6.65-7.7H41.16c-3.67,0-6.65,3.45-6.65,7.7Z" fill="#cbecf9"/><path d="M37.19,65.42V77.55c0,4.25,3,7.69,6.66,7.69H69.43c3.67,0,6.65-3.44,6.65-7.69h0l9-4.44-7.32-7.69c0-4.25-3-7.7-6.65-7.7H43.85c-3.68,0-6.66,3.45-6.66,7.7Z" fill="#fff"/><path d="M71.12,89.42h-30c-4.11,0-7.44-3.86-7.45-8.61V65.42c0-4.75,3.34-8.61,7.45-8.61h30c4,0,7.25,3.61,7.44,8.19l7.08,7.44a1,1,0,0,1,.07,1.29l-.07.08-7.08,7.41C78.36,85.81,75.09,89.41,71.12,89.42ZM41.17,58.64c-3.24,0-5.86,3-5.87,6.78V80.81c0,3.74,2.63,6.77,5.86,6.77h30c3.24,0,5.85-3,5.86-6.77a1,1,0,0,1,.26-.68l6.67-7-6.67-7a1,1,0,0,1-.26-.68c0-3.74-2.63-6.77-5.86-6.77Z" fill="#2fb1ea"/><path d="M70.46,70H43.16c-1.33,0-2-.77-2-2.31h0c0-1.54.66-2.31,2-2.31h27.3c1.33,0,2,.77,2,2.31h0C72.45,69.27,71.79,70,70.46,70Z" fill="#f88"/><path d="M70.46,80.81H43.16c-1.33,0-2-.77-2-2.31h0c0-1.54.66-2.31,2-2.31h27.3c1.33,0,2,.77,2,2.31h0C72.45,80,71.79,80.81,70.46,80.81Z" fill="#f88"/><text transform="translate(0 129.25)" font-size="24" fill="#48a5dd" font-family="SimHei" style="isolation:isolate">对话机器人生成<tspan x="0" y="28.8" xml:space="preserve">     工具</tspan></text></g></g></svg>