<svg xmlns="http://www.w3.org/2000/svg" viewBox="0 0 144 141.95"><title>资源 6</title><g id="a6765e84-2f90-4f5e-9ec4-c3e27ab464de" data-name="图层 2"><g id="aeefd5d3-850c-45b4-911d-7cc243c26fb4" data-name="图层 1"><path d="M106.65,100a9.49,9.49,0,0,0,9.53-9.52V81h-9.53v9.53H97.13V100h9.52m-19,0V90.48H73.32V100H87.61M63.8,100V90.48H54.27V81H44.75v9.53A9.49,9.49,0,0,0,54.27,100H63.8m52.38-28.57V57.14h-9.53V71.43h9.53m-61.91,0V38.1H87.61V9.52A9.49,9.49,0,0,0,78.08,0H25.7a9.49,9.49,0,0,0-9.52,9.52V61.9a9.49,9.49,0,0,0,9.52,9.53H54.27M44.75,61.9h-19V9.52H78.08V28.57H54.27a9.49,9.49,0,0,0-9.52,9.53V61.9m71.43-14.28V38.1a9.5,9.5,0,0,0-9.53-9.53H97.13V38.1h9.52v9.52Z" fill="#2fb1ea"/><text transform="translate(0 138.2)" font-size="24" fill="#48a5dd" font-family="SimHei" style="isolation:isolate">差异检测工具</text></g></g></svg>