<svg xmlns="http://www.w3.org/2000/svg" viewBox="0 0 144 137.69"><title>资源 2</title><g id="a6daa679-3c9a-42ab-838f-7133f51e6834" data-name="图层 2"><g id="f0c3908d-cd97-4f5c-af62-ae61d6bacea6" data-name="图层 1"><path d="M113.78,68.75c0,10.62-11.25,20-25,21.25v3.75A5.9,5.9,0,0,1,82.53,100H41.9a5.9,5.9,0,0,1-6.25-6.25V80a5.9,5.9,0,0,1,6.25-6.25H82.53c4.37,0,6.87,2.5,6.24,6.25v3.75c10.63-1.25,19.38-8.12,19.38-15S99.4,55,88.77,53.75v3.12a5.9,5.9,0,0,1-6.24,6.26H41.9a5.91,5.91,0,0,1-6.25-6.26V52.5c-12.5-1.88-21.87-10.63-21.87-20.63s9.37-18.74,21.87-20.62v-5A5.9,5.9,0,0,1,41.9,0H82.53c4.37,0,6.87,2.5,6.24,6.25V20a5.9,5.9,0,0,1-6.24,6.25H41.9A5.9,5.9,0,0,1,35.65,20V17.5c-9.37,1.88-16.24,8.13-16.24,14.37,0,6.88,6.87,12.5,16.24,14.38V43.12a5.9,5.9,0,0,1,6.25-6.25H82.53c4.37,0,6.87,2.51,6.24,5.63v5c14.38,1.25,25,10.62,25,21.25ZM41.9,20H82.53V6.25H41.9Zm0,36.25H82.53V42.49H41.9V56.25Zm0,37.5H82.53V80H41.9Z" fill="#2fb1ea"/><text transform="translate(0 133.94)" font-size="24" fill="#48a5dd" font-family="SimHei" style="isolation:isolate">BPMN编辑工具</text></g></g></svg>