<svg xmlns="http://www.w3.org/2000/svg" viewBox="0 0 168 139.75"><title>资源 5</title><g id="b8f44f85-171c-44f5-82ba-7e2d0e16b881" data-name="图层 2"><g id="ebcc1ba1-2991-4ec5-9f21-9aa096cd448a" data-name="图层 1"><path d="M76.18,87.26H45.68a1.48,1.48,0,0,1-1.4-1.6V11.35a1.52,1.52,0,0,1,1.4-1.6h60.65a1.48,1.48,0,0,1,1.4,1.6v22a4.61,4.61,0,1,0,9.21,0v-22C116.94,5.06,112.18,0,106.33,0H45.68c-5.85,0-10.6,5.12-10.6,11.35V85.61C35.08,91.9,39.83,97,45.68,97h30.5a4.74,4.74,0,0,0,4.6-4.9A4.65,4.65,0,0,0,76.18,87.26Z" fill="#2fb1ea"/><path d="M133.74,91.68l-11.6-12.36a23,23,0,0,0,2.1-9.7c0-12.1-9.25-22-20.66-22s-20.65,9.86-20.65,22,9.25,22,20.65,22a19.74,19.74,0,0,0,12.71-4.69l10.9,11.62a4.39,4.39,0,0,0,6.5,0,5,5,0,0,0,.05-6.88Zm-30.11-9.86c-6.3,0-11.45-5.49-11.45-12.2s5.15-12.21,11.45-12.21,11.46,5.49,11.46,12.21S109.93,81.82,103.63,81.82ZM92.48,28.57a4.74,4.74,0,0,0-4.6-4.9H53.23a4.74,4.74,0,0,0-4.6,4.9,4.75,4.75,0,0,0,4.6,4.91H87.88A4.75,4.75,0,0,0,92.48,28.57ZM53.23,44.72a4.92,4.92,0,0,0,0,9.81H72.58a4.92,4.92,0,0,0,0-9.81Z" fill="#2fb1ea"/><text transform="translate(0 136)" font-size="24" fill="#48a5dd" font-family="SimHei" style="isolation:isolate">形式化验证工具</text></g></g></svg>