<svg id="adbbeb6a-53eb-4d28-8474-a64151589d22" data-name="图层 1" xmlns="http://www.w3.org/2000/svg" viewBox="0 0 180 180"><title>画板 1123</title><path d="M53.53,33.75h70q6.66,0,6.66,6.67v70q0,6.66-6.66,6.67h-70q-6.68,0-6.67-6.67v-70q0-6.68,6.67-6.67Z" fill="#111314" fill-opacity="0.72"/><path d="M52.69,54.59h6.67v25H52.69A1.66,1.66,0,0,1,51,77.92V56.25a1.67,1.67,0,0,1,1.66-1.66Z" fill="#ffc13c"/><path d="M59.36,54.59l6.49-13a6.68,6.68,0,0,1,6-3.68h0a3.24,3.24,0,0,1,3.25,3.25A3.06,3.06,0,0,1,75,42L71.86,54.59H83.44a6.65,6.65,0,0,1,6.67,6.66,6.57,6.57,0,0,1-.34,2.11l-4.65,14A3.33,3.33,0,0,1,82,79.59H59.36Z" fill="#fff"/><path d="M124.36,96.25h-6.67v-25h6.67A1.67,1.67,0,0,1,126,72.92V94.59a1.66,1.66,0,0,1-1.67,1.66Z" fill="#5badff"/><path d="M117.69,96.25l-6.49,13a6.67,6.67,0,0,1-6,3.68h0a3.25,3.25,0,0,1-3.25-3.25,3,3,0,0,1,.1-.79l3.15-12.63H93.61a6.67,6.67,0,0,1-6.67-6.66,6.58,6.58,0,0,1,.35-2.11l4.65-14a3.32,3.32,0,0,1,3.16-2.28h22.59v25Z" fill="#fff"/><path d="M76,104.59a4.17,4.17,0,1,0,4.16-4.17A4.16,4.16,0,0,0,76,104.59Z" fill="#cacbcc"/><path d="M117.69,46.25a4.17,4.17,0,0,0,8.34,0h0a4.17,4.17,0,1,0-8.34,0Z" fill="#edeef0"/><path d="M63.53,104.59a4.17,4.17,0,0,0,8.33,0h0a4.17,4.17,0,1,0-8.33,0Z" fill="#cacbcc"/><path d="M105.19,46.25a4.17,4.17,0,0,0,8.34,0h0a4.17,4.17,0,1,0-8.34,0Z" fill="#edeef0"/><path d="M51,104.59a4.17,4.17,0,1,0,4.16-4.17A4.16,4.16,0,0,0,51,104.59Z" fill="#cacbcc"/><path d="M92.69,46.25a4.17,4.17,0,0,0,8.34,0h0a4.17,4.17,0,1,0-8.34,0Z" fill="#edeef0"/><path d="M123.53,121.25h13.33a1.48,1.48,0,0,1,1.67,1.67v.83a1.48,1.48,0,0,1-1.67,1.67H123.53a1.48,1.48,0,0,1-1.67-1.67v-.83A1.48,1.48,0,0,1,123.53,121.25Z" fill="#edeef0"/><path d="M136,108.75h.83a1.48,1.48,0,0,1,1.67,1.67v13.33a1.48,1.48,0,0,1-1.67,1.67H136a1.48,1.48,0,0,1-1.67-1.67V110.42A1.48,1.48,0,0,1,136,108.75Z" fill="#edeef0"/><path d="M40.19,25.42H61.86a1.47,1.47,0,0,1,1.67,1.67v.83a1.48,1.48,0,0,1-1.67,1.67H40.19a1.47,1.47,0,0,1-1.66-1.67v-.83A1.47,1.47,0,0,1,40.19,25.42Z" fill="#cacbcc"/><path d="M40.19,25.42H41a1.47,1.47,0,0,1,1.66,1.67V48.75A1.47,1.47,0,0,1,41,50.42h-.84a1.47,1.47,0,0,1-1.66-1.67V27.09A1.47,1.47,0,0,1,40.19,25.42Z" fill="#cacbcc"/><text transform="translate(4.87 160.14)" font-size="24" fill="#48a5dd" font-family="SimHei" style="isolation:isolate">一致性检测工具</text></svg>