<svg xmlns="http://www.w3.org/2000/svg" viewBox="0 0 144 138.25"><title>资源 4</title><g id="f54b23d3-40c7-41ad-a92b-a0e4115b5b85" data-name="图层 2"><g id="baf56043-f3fd-4a51-980b-e18d2e3d5977" data-name="图层 1"><path d="M68.84,100a3.74,3.74,0,0,1-1.51-.33,3.26,3.26,0,0,1-2-3V3.31a3.33,3.33,0,0,1,2-3,3.72,3.72,0,0,1,3.72.44l58.53,46.68A3.26,3.26,0,0,1,130.86,50a3.23,3.23,0,0,1-1.28,2.55L71.05,99.22a3.14,3.14,0,0,1-2.21.78Zm3.48-89.58V89.55L121.92,50,72.32,10.42Z" fill="#2fb1ea"/><path d="M34.34,100A3.25,3.25,0,0,1,33,99.67a3.39,3.39,0,0,1-2.09-3V3.31A3.15,3.15,0,0,1,33,.31a3.75,3.75,0,0,1,3.72.55l32.52,28a3.23,3.23,0,0,1,.23,4.67,3.59,3.59,0,0,1-4.88.22l-26.71-23V89.11l26.71-23a3.58,3.58,0,0,1,4.88.23A3.22,3.22,0,0,1,69.19,71L36.67,99a3.35,3.35,0,0,1-2.33,1Z" fill="#2fb1ea"/><text transform="translate(0 134.5)" font-size="24" fill="#48a5dd" font-family="SimHei" style="isolation:isolate">模型仿真工具</text></g></g></svg>