<svg xmlns="http://www.w3.org/2000/svg" viewBox="0 0 144 137.02"><title>资源 7</title><g id="b538a13a-30b5-4e3e-a921-030fd64a1dd7" data-name="图层 2"><g id="a2a00efa-3761-4aa4-9744-37a94ab41b5b" data-name="图层 1"><path d="M23.44,28.75H25v-1.4H23.44Zm0,8.41H25v-1.4H23.44Zm0-5.61H25v-1.4H23.44Zm0,2.81H25V33H23.44Zm0,5.6H25v-1.4H23.44Zm0,2.8H25v-1.4H23.44Zm11.2-23.91h1.51v-1.4H34.64Zm-3.12-1.3.22,1.39A8.21,8.21,0,0,1,33,18.85h.18v-1.4H33A9.73,9.73,0,0,0,31.52,17.55Zm-8.07,8.37L25,26a6,6,0,0,1,.17-1.27l-1.47-.3A7.73,7.73,0,0,0,23.45,25.92Zm5-7.41.71,1.24a7.33,7.33,0,0,1,1.27-.51l-.49-1.33A10.08,10.08,0,0,0,28.43,18.51Zm9.23-1.06v1.4h1.51v-1.4ZM25.87,20.39l1.12.94a7.77,7.77,0,0,1,1-.88l-.94-1.1a9.14,9.14,0,0,0-1.19,1ZM24.14,23l1.4.53a7,7,0,0,1,.62-1.14l-1.28-.74A8.86,8.86,0,0,0,24.14,23Zm78.11-1.31-1.29.74a6.3,6.3,0,0,1,.62,1.14L103,23A8.9,8.9,0,0,0,102.25,21.65ZM102.15,54h1.51v-1.4h-1.51Zm1.31-29.56-1.48.29a6.8,6.8,0,0,1,.17,1.27l1.51-.05a8.56,8.56,0,0,0-.2-1.51Zm-3.37-5.08-1,1.1a7.68,7.68,0,0,1,1,.88l1.13-.93a9.83,9.83,0,0,0-1.18-1.05Zm-3.35-.13a7.76,7.76,0,0,1,1.26.52l.73-1.23a9.82,9.82,0,0,0-1.5-.61l-.49,1.32ZM91,18.85h1.51v-1.4H91Zm-3,0H89.5v-1.4H88Zm6-1.4v1.4h.13a8.9,8.9,0,0,1,1.26.09l.23-1.38a9.17,9.17,0,0,0-1.49-.11Zm8.13,31h1.51V47h-1.51Zm0-16.82h1.51V30.2h-1.51Zm0,2.8h1.51V33h-1.51Zm0,2.81h1.51v-1.4h-1.51Zm0-9.81v1.4h1.51V27.4Zm0,18.22h1.51V44.21h-1.51Zm0,5.6h1.51v-1.4h-1.51Zm0-11.21h1.51v-1.4h-1.51Zm0,2.8h1.51v-1.4h-1.51ZM61.93,46.1H24.07c-5.8,0-10.52,4.38-10.52,9.77V87.35l9.83-8.91H56.16V67.29c0-4.61,4.05-8.37,9-8.37h7.28V55.87c0-5.39-4.72-9.77-10.52-9.77Zm9,11.42H65.18c-5.81,0-10.52,4.39-10.52,9.77V77H22.77l-7.71,7V55.87c0-4.61,4-8.37,9-8.37H61.93c5,0,9,3.76,9,8.37v1.65Z" fill="#4a555f"/><path d="M61.93,49.14H24.07a7,7,0,0,0-7.25,6.73V80.15l5.23-4.74H52.9V67.29c0-6.29,5.5-11.4,12.27-11.4h4v0a7,7,0,0,0-7.25-6.73Z" fill="#ffd452"/><path d="M103,57.52H65.17c-5.8,0-10.51,4.38-10.51,9.77V80.1c0,5.38,4.71,9.77,10.51,9.77h37.26L113.55,100V67.29c0-5.39-4.72-9.77-10.52-9.77Zm9,39.14-9-8.19H65.17c-5,0-9-3.76-9-8.37V67.29c0-4.61,4-8.37,9-8.37H103c5,0,9,3.76,9,8.37Z" fill="#4a555f"/><path d="M103,60.56H65.17a7,7,0,0,0-7.24,6.73V80.1a7,7,0,0,0,7.24,6.73h38.6l6.51,5.94V67.29A7,7,0,0,0,103,60.56Z" fill="#71cce0"/><path d="M56.93,12H70.09V24.27H56.93Z" fill="#f58e6f"/><path d="M59.13,7.93h1.51V12H59.13Zm3.63,0h1.5V12h-1.5Zm3.62,0h1.51V12H66.38ZM59.13,24.26h1.51v4.11H59.13Zm3.63,0h1.5v4.11h-1.5Zm3.62,0h1.51v4.11H66.38Zm3.71-10.17h4.42v1.4H70.09Zm0,3.36h4.42v1.4H70.09Zm0,3.37h4.42v1.4H70.09ZM52.51,14.09h4.42v1.4H52.51Zm0,3.36h4.42v1.4H52.51Zm0,3.37h4.42v1.4H52.51Z" fill="#4a555f"/><path d="M56.17,11.34V25H70.84V11.34ZM69.34,23.56H57.68V12.74H69.34Z" fill="#4a555f"/><path d="M63.63,0c-8.1,0-15.45,4.75-18.29,11.81l1.41.49C49.37,5.78,56.16,1.4,63.63,1.4S77.89,5.78,80.51,12.3l1.41-.49C79.08,4.75,71.73,0,63.63,0Zm16.8,24.21A18,18,0,0,1,63.63,34.9a18,18,0,0,1-16.8-10.69l-1.4.51A19.44,19.44,0,0,0,63.63,36.3a19.43,19.43,0,0,0,18.2-11.58l-1.4-.51Z" fill="#4a555f"/><path d="M82,7.72,80.88,11l-3.81-1-.4,1.35,5.21,1.34,1.55-4.6ZM45.69,23.61l-1.6,4.95,1.44.4,1.19-3.65,4.09,1L51.2,25ZM26.32,52.49a4.17,4.17,0,0,0-4.31,4v6.76h1.51V56.49a2.81,2.81,0,0,1,5.6,0v6.76h1.51V56.49a4.18,4.18,0,0,0-4.31-4Z" fill="#4a555f"/><path d="M22.77,57.72h7.1v1.4h-7.1ZM68.42,68.65H63.61v5.94h4.81a3,3,0,1,0,0-5.94Zm0,4.54h-3.3V70.05h3.3a1.57,1.57,0,1,1,0,3.14Z" fill="#4a555f"/><path d="M68.35,64H63.61v6.06h4.74a3,3,0,1,0,0-6.06Zm0,4.66H65.12V65.4h3.23a1.63,1.63,0,1,1,0,3.25ZM42.85,55.74h1.51v-1.4H42.85Zm-3,0h1.51v-1.4H39.83Zm9.05,0h1.51v-1.4H48.88Zm-12.07,0h1.51v-1.4H36.81Zm9,0h1.51v-1.4H45.86ZM61,54.34v1.4h1.51v-1.4Zm-3,1.4h1.51v-1.4H57.93Zm-6,0h1.51v-1.4H51.9Zm3,0h1.51v-1.4H54.91ZM36.81,59.5H54v1.4H36.81Zm0,5.16H52.24v1.41H36.81Zm0,5.17H52.24v1.4H36.81Zm49.13-2.72h1.51v-1.4H85.94Zm-3,0h1.51v-1.4H82.92Zm-3,0h1.51v-1.4H79.9Zm-3,0H78.4v-1.4H76.89Zm18.1,0H96.5v-1.4H95Zm-6,0h1.51v-1.4H89Zm9.06,0h1.5v-1.4H98Zm3-1.4v1.4h1.51v-1.4Zm-9,1.4h1.51v-1.4H92ZM76.89,70.88h26.45v1.4H76.89Zm0,5.16h26.45v1.4H76.89Zm0,5.16h26.45v1.41H76.89Z" fill="#4a555f"/><text transform="translate(0 133.27)" font-size="24" fill="#48a5dd" font-family="SimHei" style="isolation:isolate">BPMN生成工具</text></g></g></svg>